<svg width="198" height="197" viewBox="0 0 198 197" fill="none" xmlns="http://www.w3.org/2000/svg">
<path d="M146.944 108.131C143.36 131.083 123.428 148.657 99.3455 148.657C75.2635 148.657 55.3315 131.083 51.7475 108.131H0.816895C5.65844 157.975 47.9748 197 99.4084 197C150.842 197 193.095 157.975 198 108.131H146.944Z" fill="#FEFEFE" fill-opacity="0.2"/>
<path d="M99.4083 138.187C119.827 138.187 136.38 121.723 136.38 101.414C136.38 81.1046 119.827 64.6406 99.4083 64.6406C78.9894 64.6406 62.4365 81.1046 62.4365 101.414C62.4365 121.723 78.9894 138.187 99.4083 138.187Z" fill="#FEFEFE" fill-opacity="0.2"/>
<path d="M52.6906 88.8689C58.0352 68.1682 76.8984 52.846 99.4084 52.846C121.918 52.846 140.782 68.1682 146.063 88.8689H197.937C193.095 39.0248 150.779 0 99.4084 0C47.9748 0 5.65844 39.0248 0.816895 88.8689H52.6906Z" fill="#FEFEFE" fill-opacity="0.2"/>
</svg>
