<svg width="120" height="36" viewBox="0 0 120 36" fill="none" xmlns="http://www.w3.org/2000/svg">
<path d="M2.95288 8.47414C3.95812 8.16486 4.8377 7.85558 5.71728 7.60816C6.59686 7.36074 7.47644 7.05146 8.48168 6.80404C9.48691 6.55661 10.3665 6.37105 11.2461 6.24733C11.9372 6.12362 12.6283 6.06177 13.3194 6.06177C14.5131 6.06177 15.267 6.12362 15.644 6.18548C16.2094 6.30919 16.712 6.4329 17.2147 6.68032C17.7173 6.92775 18.1571 7.23702 18.534 7.60816C18.911 7.97929 19.2251 8.47414 19.4764 8.96898C19.6021 9.15455 19.6021 9.40197 19.6021 9.6494C19.6021 10.5154 19.0995 11.6288 18.0942 12.9896C17.089 14.3504 16.0838 15.4638 15.0785 16.4535C14.0733 17.4432 13.3194 18.1236 12.8168 18.5566L15.0785 26.103L11.8743 28.3917L6.28272 12.6185C6.28272 12.6185 6.2199 12.6803 6.03142 12.8659C5.90576 12.9896 5.71728 13.237 5.46597 13.4844C5.21466 13.7319 5.08901 13.8556 5.02618 13.9174C5.02618 13.9174 4.90052 13.7319 4.77487 13.4226C4.64922 13.0515 4.46073 12.6185 4.20943 11.9999C3.95812 11.3814 3.70681 10.7009 3.4555 9.95867C3.26702 9.15455 3.07854 8.6597 2.95288 8.47414ZM10.8691 11.8143L11.8743 15.3401C12.377 14.8453 13.0052 14.1649 13.7592 13.2989C14.5131 12.4329 14.8901 11.8143 14.8901 11.3814C14.8901 11.2576 14.8272 11.1339 14.7016 11.1339C14.3246 11.0721 13.9476 11.0102 13.6335 11.0102C12.5026 11.0102 11.623 11.2576 10.8691 11.8143Z" fill="#1D2F5F"/>
<path d="M26.8901 14.5359C27.4555 14.8452 27.9581 15.2782 28.2723 15.773C28.6492 16.2679 28.9006 16.8864 29.089 17.505C29.2775 18.1235 29.3403 18.804 29.3403 19.5462C29.3403 20.1029 29.2775 20.6596 29.2147 21.2163C29.1519 21.773 28.9634 22.2679 28.8377 22.7009C28.6492 23.1339 28.4608 23.505 28.2723 23.8143C27.7697 24.5565 27.2042 25.2369 26.6388 25.7318C26.0733 26.2885 25.4451 26.7215 24.8168 27.0308C24.1885 27.34 23.6231 27.5875 22.9948 27.773C22.3665 27.9586 21.8011 28.0205 21.2356 28.0205C20.5445 28.0205 19.9163 27.8967 19.288 27.7112C18.6597 27.5256 18.1571 27.2163 17.7173 26.9071C16.9634 26.2885 16.3979 25.5462 16.021 24.4947C15.644 23.505 15.3927 22.4534 15.3927 21.2782C15.3927 19.3607 15.9581 17.8143 17.089 16.5772C18.0314 15.5875 19.0367 14.7833 20.1047 14.2885C21.11 13.7937 22.178 13.4844 23.2461 13.4844C23.8744 13.4844 24.5026 13.5462 25.0681 13.7318C25.6335 13.9792 26.199 14.2266 26.8901 14.5359ZM26.1362 16.5772C26.0105 17.1957 25.6964 17.7524 25.2566 18.1854C24.8168 18.6802 24.377 18.8658 23.9372 18.8658C23.7487 18.8658 23.4974 18.804 23.3718 18.6803C23.1204 18.4947 22.9948 18.1235 22.9948 17.6906C22.9948 17.3194 23.1204 16.9483 23.3718 16.5772C23.6231 16.206 24 15.9586 24.5655 15.7112C24 15.7112 23.4974 15.8349 22.9948 16.0205C22.4922 16.206 22.0524 16.4534 21.7382 16.8246C21.4241 17.1957 21.11 17.505 20.8587 17.8761C20.6702 18.2473 20.5445 18.6802 20.5445 19.0514C20.5445 19.7937 20.9215 20.4122 21.6126 20.8452C22.2409 21.2782 22.8691 21.4638 23.4974 21.4638C24.0629 21.4638 24.5655 21.2782 25.0053 20.9071C25.4451 20.5359 25.822 20.0411 26.0105 19.4225C26.2618 18.804 26.3875 18.2473 26.3875 17.6287C26.3246 17.2576 26.2618 16.8864 26.1362 16.5772Z" fill="#1D2F5F"/>
<path d="M27.267 7.48457L33.4869 4.94849L34.3665 18.8042L39.4555 16.0825L44.733 16.8866L37.822 22.0825L44.2932 26.9072L44.6073 31.732L34.9947 24.9279L35.3089 30.8041L29.5916 30.9279L28.5235 10.0825L26.7015 10.4536L27.267 7.48457Z" fill="#1D2F5F"/>
<path d="M60.6911 5.13394L60.9424 13.4844H62.6387L62.1989 5.62878L68.6701 6.12363L69.9895 32.9071L64.9633 32.7834L62.9528 18.7422L61.068 18.2473L60.9424 30.9277L55.1623 31.0515L54.4712 8.04115L52.3979 7.54631L52.2722 4.51538L60.6911 5.13394Z" fill="#1D2F5F"/>
<path d="M77.6544 13.6703L82.7435 11.3816L82.8691 18.1239C82.9319 18.5568 82.9948 18.9898 82.9948 19.5465C82.9948 20.0414 82.9948 20.3507 82.9319 20.5981L83.0576 27.9589L77.5916 28.2682V27.5259C76.712 27.8971 75.7696 28.0826 74.89 28.0826C74.1989 28.0826 73.5079 27.9589 72.9424 27.7733C72.377 27.5878 71.8115 27.2785 71.3717 26.9074C70.6178 26.2888 70.0524 25.5465 69.6754 24.495C69.2984 23.5053 69.0471 22.4538 69.0471 21.2785C69.0471 19.361 69.6126 17.8146 70.7435 16.5775C71.7487 15.5878 72.7539 14.7837 73.7592 14.2888C74.7644 13.794 75.8325 13.4847 76.9633 13.4847C77.2775 13.4847 77.466 13.4847 77.6544 13.4847V13.6703ZM77.5288 15.8352C77.089 15.8971 76.6492 16.0208 76.2094 16.2682C75.7696 16.5156 75.3927 16.763 75.0785 17.0723C74.7644 17.3816 74.5131 17.6909 74.3246 18.062C74.1361 18.4331 74.0733 18.8043 74.0733 19.1135C74.0733 19.8558 74.4503 20.4125 75.1414 20.9074C75.7696 21.3404 76.3979 21.5259 77.0262 21.5259C77.1518 21.5259 77.3403 21.5259 77.5288 21.4641V18.928C77.3403 18.928 77.089 18.8661 76.9633 18.7424C76.712 18.5568 76.5864 18.1857 76.5864 17.629C76.5864 16.8249 76.9005 16.2063 77.5288 15.8352Z" fill="#1D2F5F"/>
<path d="M94.3664 13.2991C94.8691 13.6084 95.3717 14.1032 95.7486 14.6599C96.1256 15.2166 96.5026 15.7733 96.691 16.2682C96.8795 16.763 97.068 17.1341 97.1308 17.3197L92.6073 18.3094C92.5445 17.9383 92.2931 17.629 91.979 17.5053C91.602 17.3816 91.2251 17.3197 90.8481 17.3197C88.7748 17.5053 87.7696 18.7424 87.7696 20.9692C87.8324 22.763 88.3979 23.7527 89.4659 23.9383C89.9685 23.9383 90.4712 23.8146 90.8481 23.5671C91.2251 23.3197 91.6021 23.0104 91.9162 22.5774C92.2303 22.1445 92.4816 21.7115 92.6701 21.2166L97.1937 22.1444C97.1308 22.33 97.0052 22.6393 96.8167 23.1341C96.6282 23.6908 96.1256 24.3713 95.3089 25.2991C94.4921 26.2269 93.6754 26.8455 92.7329 27.1548C91.6021 27.5877 90.4712 27.8352 89.3403 27.8352C87.5183 27.8352 85.9476 27.2785 84.5654 26.1032C83.9371 25.5465 83.4973 24.928 83.1832 24.1857C82.8691 23.4434 82.7434 22.7012 82.7434 21.897C82.7434 21.0929 82.8691 20.2269 83.1204 19.4228C83.3717 18.6187 83.623 17.8764 84 17.196C84.4397 16.33 84.9424 15.5878 85.445 14.9692C85.9476 14.3506 86.5759 13.8558 87.1413 13.4847C87.7068 13.1135 88.335 12.8042 88.9633 12.6187C89.5916 12.4331 90.2199 12.3713 90.8481 12.3713C92.1047 12.3094 93.2984 12.6187 94.3664 13.2991Z" fill="#1D2F5F"/>
<path d="M95.3089 7.48457L101.529 4.94849L102.408 18.8042L107.497 16.0825L112.775 16.8866L105.864 22.0825L112.335 26.9072L112.649 31.732L103.037 24.9279L103.351 30.8041L97.5707 30.9279L96.5027 10.0825L94.6807 10.4536L95.3089 7.48457Z" fill="#1D2F5F"/>
<path fill-rule="evenodd" clip-rule="evenodd" d="M37.4451 29.1959L39.5184 30.9897L37.6336 32.8454L27.5812 33.031L27.3035 28.0339C26.8413 28.4029 26.3631 28.713 25.8849 28.9484C25.1309 29.3814 24.377 29.6906 23.5603 29.8762C22.7435 30.0618 21.9896 30.1855 21.1728 30.1855C20.2304 30.1855 19.3508 30.0618 18.5341 29.7525C17.6545 29.4432 16.9634 29.0721 16.3351 28.5772C16.1611 28.4274 15.9928 28.2719 15.8308 28.1103L10.8063 31.6701L5.21466 16.0207L3.51832 16.7011L0 7.23716L1.88482 5.38149C2.39414 5.22479 2.9841 5.35392 3.55665 5.47923C4.11412 5.60124 4.65508 5.71964 5.08901 5.56706C5.83899 5.30335 6.68032 5.08461 7.49617 4.8725L7.49621 4.87249L7.49668 4.87237L7.49674 4.87235C7.63753 4.83575 7.77756 4.79934 7.91623 4.76294L7.91624 4.76294C8.92147 4.51551 9.9267 4.26809 10.8691 4.14438C11.623 4.02067 12.4398 3.95881 13.3194 3.95881C15.0785 3.95881 15.644 4.02067 16.0209 4.08253C16.7749 4.20624 17.466 4.45366 18.1571 4.76294C18.8482 5.13407 19.4764 5.56706 20.0419 6.12376C20.6073 6.68046 21.0471 7.36088 21.4241 8.10314C21.6754 8.59799 21.7382 9.15469 21.7382 9.64954C21.7382 10.3021 21.5938 10.9831 21.2979 11.7061C21.9341 11.5701 22.5835 11.5051 23.2461 11.5051C23.5893 11.5051 23.9324 11.5269 24.2709 11.566L25.3823 6.00004L27.2671 4.14437L35.4346 1.85571L36.3142 15.4021L39.0786 13.8557L41.9377 14.2739C42.0696 14.1214 42.2053 13.9822 42.3455 13.8557C42.742 13.4653 43.1776 13.1519 43.5906 12.8548C43.7011 12.7753 43.81 12.6969 43.9161 12.6186L40.5863 7.42272L42.4711 5.56705L50.0741 2.19015L50.0732 2.16497L50.1218 2.16899L50.8271 1.85571L51.0866 2.24893L62.7643 3.21652V3.58765L70.7434 4.14435L71.7568 12.9731C72.0702 12.7732 72.3828 12.5928 72.6911 12.433C74.0104 11.7526 75.3926 11.4433 76.8377 11.4433H77.4031L84.8167 8.16496L84.873 12.5448C85.2411 12.2279 85.6258 11.9432 86.0105 11.6907C86.7644 11.1958 87.5812 10.8247 88.3979 10.5773C89.2147 10.3299 90.0314 10.2061 90.911 10.2061C91.4729 10.2061 92.021 10.2537 92.5553 10.3509L93.424 6.00004L95.3088 4.14437L103.414 1.85571L104.293 15.4021L107.12 13.8557L120 13.6083L118.115 15.464L109.445 22.0207L114.471 25.7939L116.984 34.1444L115.099 36L105.424 29.1959L107.497 30.9897L105.613 32.8454L95.5602 33.031L95.3108 28.28C94.7857 28.6301 94.2368 28.9129 93.6754 29.134C92.1676 29.567 90.7854 29.8144 89.4032 29.8144C87.8787 29.8144 86.4623 29.4952 85.1717 28.8567L85.1937 29.9382L75.3926 30.4949V30.1237H74.8272C74.4472 30.1237 74.0775 30.1036 73.718 30.0593L74.0732 33.1546L72.1884 35.0103L63.0785 34.8248L62.8272 32.9691L53.089 33.1546L52.9392 28.0613C52.642 28.1593 52.3359 28.249 52.0208 28.3299C50.513 28.7629 49.1308 28.9485 47.7486 28.9485C47.6237 28.9485 47.4999 28.9468 47.3773 28.9435L48.9425 34.1444L47.0577 36L37.4451 29.1959ZM90.008 21.379C89.9902 21.2589 89.9686 21.114 89.9686 20.969C89.9686 19.8556 90.2827 19.5463 90.7225 19.4226L90.8482 20.0412L90.7225 20.4123C90.5969 20.7835 90.4084 21.0927 90.2199 21.3402C90.1571 21.4639 90.0943 21.5257 90.0314 21.5876C90.0314 21.5365 90.0207 21.4643 90.0082 21.3798L90.008 21.3791L90.008 21.379Z" fill="#1D2F5F"/>
<path fill-rule="evenodd" clip-rule="evenodd" d="M39.5184 30.9897L39.3299 27.3402L48.9424 34.1443L48.5054 27.0449C48.8707 27.0768 49.2467 27.0928 49.6336 27.0928C51.0158 27.0928 52.398 26.9072 53.9059 26.4742C54.2209 26.3933 54.527 26.3036 54.8241 26.2057L54.9739 31.2989L64.7121 31.1133L64.9634 32.969L74.0733 33.1545L73.8197 27.7362C73.9035 27.7699 73.988 27.8029 74.0732 27.8351C74.89 28.1444 75.7696 28.2681 76.712 28.2681H77.2774V28.6392L87.0785 28.0825L87.0565 27.0011C88.3471 27.6395 89.7635 27.9588 91.2879 27.9588C92.6701 27.9588 94.0523 27.7113 95.5602 27.2784C96.1216 27.0573 96.6705 26.7744 97.1956 26.4243L97.4449 31.1753L107.497 30.9897L107.309 27.3402L116.984 34.1443L116.356 23.9381L111.33 20.1649L120 13.6082L109.005 12L106.178 13.5464L105.298 0L95.3088 4.14433L94.44 8.49529C93.9057 8.39803 93.3576 8.35053 92.7958 8.35053C91.9162 8.35053 91.0994 8.47424 90.2827 8.72166C89.4659 8.96908 88.6492 9.34022 87.8952 9.83506C87.5105 10.0876 87.1258 10.3723 86.7578 10.6892L86.7015 6.30935L79.2879 9.5877H78.7224C77.2774 9.5877 75.8952 9.89697 74.5758 10.5774C74.077 10.8359 73.5671 11.1484 73.0601 11.5104L72.6283 2.28858L64.6493 1.73188V1.36074L52.7561 0.0665578L52.7121 0L42.4713 5.56701L45.8011 10.7629C45.695 10.8412 45.5861 10.9196 45.4756 10.9991C45.0626 11.2962 44.627 11.6096 44.2305 12C44.0903 12.1265 43.9546 12.2657 43.8227 12.4182L40.9634 12L38.199 13.5464L37.3194 0L27.267 4.14433L26.1557 9.71038C25.8172 9.6713 25.474 9.64946 25.1309 9.64946C24.4683 9.64946 23.8189 9.7145 23.1827 9.85052C23.4785 9.12745 23.623 8.44646 23.623 7.79392C23.623 7.29907 23.5602 6.74237 23.3088 6.24752C22.9319 5.50526 22.4921 4.82484 21.9267 4.26814C21.3612 3.71144 20.7329 3.27845 20.0418 2.90732C19.3507 2.59804 18.6596 2.35062 17.9057 2.22691C17.5287 2.16505 16.9633 2.1032 15.2041 2.1032C14.3246 2.1032 13.5078 2.16505 12.7539 2.28876C11.8115 2.41247 10.8062 2.6599 9.801 2.90732C9.66233 2.94373 9.5223 2.98013 9.38151 3.01674L9.38145 3.01675L9.38097 3.01688L9.38094 3.01688C8.56509 3.229 7.72375 3.44773 6.97377 3.71144C6.09419 4.02072 5.15178 4.33 4.20937 4.57742L1.88477 5.38155L5.6544 14.6599L7.09943 14.165L12.691 29.8145L17.7156 26.2547C17.8776 26.4163 18.0459 26.5717 18.2199 26.7216C18.8482 27.2165 19.5393 27.5876 20.4188 27.8969C21.2356 28.2062 22.1152 28.3299 23.0576 28.3299C23.8743 28.3299 24.6283 28.2062 25.445 28.0206C26.2618 27.835 27.0157 27.5257 27.7696 27.0928C28.2479 26.8573 28.7261 26.5472 29.1883 26.1783L29.466 31.1753L39.5184 30.9897ZM91.8928 19.5234C91.8749 19.4033 91.8534 19.2583 91.8534 19.1134C91.8534 18 92.1675 17.6907 92.6073 17.567L92.7329 18.1856L92.6073 18.5567C92.4816 18.9278 92.2932 19.2371 92.1047 19.4845C92.0418 19.6083 91.979 19.6701 91.9162 19.732C91.9162 19.6807 91.9054 19.6083 91.8928 19.5234Z" fill="#415BA6"/>
<path d="M4.83765 6.61842C5.84288 6.30915 6.72246 5.99987 7.60204 5.75245C8.48163 5.44317 9.42403 5.19574 10.3664 4.94832C11.3089 4.7009 12.2513 4.51533 13.1308 4.39162C13.8219 4.26791 14.513 4.20605 15.2041 4.20605C16.3979 4.20605 17.1518 4.26791 17.5287 4.32977C18.0942 4.45348 18.5968 4.57719 19.0994 4.82461C19.602 5.07203 20.0418 5.38131 20.4188 5.75245C20.7958 6.12358 21.1099 6.61842 21.3612 7.11327C21.4869 7.29884 21.4869 7.54626 21.4869 7.79368C21.4869 8.65966 20.9842 9.77306 19.979 11.1339C18.9738 12.4329 17.9685 13.6081 16.9633 14.5978C15.9581 15.5875 15.2041 16.2679 14.7015 16.7009L16.9633 24.2473L13.7591 26.5359L8.16749 10.7628C8.16749 10.7628 8.10466 10.8246 7.91618 11.0102C7.79053 11.1339 7.60204 11.3813 7.35074 11.6287C7.09943 11.8762 6.97377 11.9999 6.91094 12.0617C6.91094 12.0617 6.78529 11.8762 6.65964 11.5669C6.53398 11.1957 6.3455 10.7628 6.09419 10.1442C5.84288 9.52564 5.59157 8.84523 5.34026 8.10296C5.15178 7.29884 4.9633 6.80399 4.83765 6.61842ZM12.7539 9.95863L13.7591 13.4844C14.2617 12.9896 14.89 12.3091 15.6439 11.4432C16.3979 10.5772 16.7748 9.95863 16.7748 9.52564C16.7748 9.40193 16.712 9.27822 16.5863 9.27822C16.2094 9.21636 15.8324 9.15451 15.5183 9.15451C14.3874 9.15451 13.5078 9.40193 12.7539 9.95863Z" fill="#415BA6"/>
<path d="M28.7748 12.6805C29.3403 12.9897 29.8429 13.4227 30.157 13.9176C30.534 14.4124 30.7853 15.031 30.9738 15.6495C31.1623 16.2681 31.2251 16.9485 31.2251 17.6908C31.2251 18.2475 31.1623 18.8042 31.0995 19.3609C31.0366 19.9176 30.8481 20.4124 30.7225 20.8454C30.534 21.2784 30.3455 21.6495 30.157 21.9588C29.6544 22.7011 29.089 23.3815 28.5235 23.8763C27.9581 24.433 27.3298 24.866 26.7015 25.1753C26.0733 25.4846 25.5078 25.732 24.8796 25.9176C24.2513 26.1031 23.6858 26.165 23.1204 26.165C22.4293 26.165 21.801 26.0413 21.1728 25.8557C20.5445 25.6701 20.0419 25.3609 19.6021 25.0516C18.8481 24.433 18.2827 23.6908 17.9057 22.6392C17.5288 21.6495 17.2775 20.598 17.2775 19.4227C17.2775 17.5052 17.8429 15.9588 18.9738 14.7217C19.9162 13.732 20.9214 12.9279 21.9895 12.433C23.0576 11.9382 24.0628 11.6289 25.1309 11.6289C25.7591 11.6289 26.3874 11.6908 26.9529 11.8763C27.5183 12.1238 28.0837 12.3712 28.7748 12.6805ZM28.0209 14.7217C27.8953 15.3402 27.5811 15.8969 27.1413 16.3299C26.7015 16.8248 26.2618 17.0103 25.822 17.0103C25.6335 17.0103 25.3822 16.9485 25.2565 16.8248C25.0052 16.6392 24.8796 16.2681 24.8796 15.8351C24.8796 15.464 25.0052 15.0928 25.2565 14.7217C25.5078 14.3506 25.8848 14.1031 26.4502 13.8557C25.8848 13.8557 25.3822 13.9794 24.8796 14.165C24.3769 14.3506 23.9372 14.598 23.623 14.9691C23.3089 15.3402 22.9947 15.6495 22.7434 16.0207C22.555 16.3918 22.4293 16.8248 22.4293 17.1959C22.4293 17.9382 22.8063 18.5567 23.4974 18.9897C24.1256 19.4227 24.7539 19.6083 25.3822 19.6083C25.9476 19.6083 26.4502 19.4227 26.89 19.0516C27.3298 18.6805 27.7068 18.1856 27.8953 17.567C28.1466 16.9485 28.2722 16.3918 28.2722 15.7732C28.2094 15.4021 28.1466 15.031 28.0209 14.7217Z" fill="#415BA6"/>
<path d="M29.1519 5.62886L35.3718 3.09277L36.2513 16.9484L41.3404 14.2268L46.6178 15.0309L39.7068 20.2268L46.1781 25.0515L46.4922 29.8763L36.8796 23.0721L37.1938 28.9484L31.4765 29.0721L30.4084 8.22679L28.5864 8.59793L29.1519 5.62886Z" fill="#415BA6"/>
<path d="M62.5758 3.27831L62.89 11.6288H64.5863L64.0837 3.77316L70.5549 4.268L71.8743 31.0515L66.8481 30.9278L64.8376 16.8866L62.9528 16.3917L62.8271 29.0721L57.047 29.1958L56.3559 6.12367L54.2826 5.62883L54.157 2.5979L62.5758 3.27831Z" fill="#415BA6"/>
<path d="M79.5392 11.8143L84.6282 9.52563L84.7539 16.2679C84.8167 16.7009 84.8795 17.1339 84.8795 17.6906C84.8795 18.1854 84.8795 18.4947 84.8167 18.7421L84.9424 26.1029L79.4764 26.4122V25.67C78.5968 26.0411 77.6544 26.2267 76.7748 26.2267C76.0837 26.2267 75.3926 26.103 74.8272 25.9174C74.2617 25.7318 73.6963 25.4225 73.2565 25.0514C72.5026 24.4328 71.9371 23.6906 71.5602 22.639C71.1832 21.6493 70.9319 20.5978 70.9319 19.4225C70.9319 17.505 71.4973 15.9586 72.6282 14.7215C73.6335 13.7318 74.6387 12.9277 75.6439 12.4329C76.6492 11.938 77.7172 11.6287 78.8481 11.6287C79.1623 11.6287 79.3507 11.6287 79.5392 11.6287V11.8143ZM79.4136 13.9792C78.9738 14.0411 78.534 14.1648 78.0942 14.4122C77.6544 14.6597 77.2774 14.9071 76.9633 15.2164C76.6492 15.5256 76.3979 15.8349 76.2094 16.206C76.0209 16.5772 75.9581 16.9483 75.9581 17.2576C75.9581 17.9999 76.335 18.5566 77.0261 19.0514C77.6544 19.4844 78.2827 19.67 78.9109 19.67C79.0366 19.67 79.2251 19.67 79.4136 19.6081V17.072C79.2251 17.072 78.9738 17.0102 78.8481 16.8865C78.5968 16.7009 78.4712 16.3298 78.4712 15.7731C78.4712 14.9689 78.7853 14.3504 79.4136 13.9792Z" fill="#415BA6"/>
<path d="M96.2512 11.4434C96.7538 11.7527 97.2564 12.2475 97.6334 12.8042C98.0104 13.3609 98.3873 13.9176 98.5758 14.4124C98.7643 14.9073 98.9528 15.2784 99.0156 15.464L94.492 16.4537C94.4292 16.0826 94.1779 15.7733 93.8638 15.6496C93.4868 15.5259 93.1099 15.464 92.7329 15.464C90.6596 15.6496 89.6544 16.8867 89.6544 19.1135C89.7172 20.9073 90.2826 21.897 91.3507 22.0826C91.8533 22.0826 92.3559 21.9588 92.7329 21.7114C93.1099 21.464 93.4868 21.1547 93.801 20.7217C94.1151 20.2887 94.3664 19.8557 94.5549 19.3609L99.0784 20.2887C99.0156 20.4743 98.89 20.7836 98.7015 21.2784C98.513 21.8351 98.0104 22.5155 97.1936 23.4434C96.3769 24.3712 95.5601 24.9898 94.6177 25.299C93.4868 25.732 92.3559 25.9795 91.225 25.9795C89.403 25.9795 87.8324 25.4228 86.4502 24.2475C85.8219 23.6908 85.3821 23.0722 85.068 22.33C84.7538 21.5877 84.6282 20.8454 84.6282 20.0413C84.6282 19.2372 84.7538 18.3712 85.0051 17.5671C85.2564 16.763 85.5078 16.0207 85.8847 15.3403C86.3245 14.4743 86.8271 13.732 87.3297 13.1135C87.8324 12.4949 88.4606 12.0001 89.0261 11.6289C89.5915 11.2578 90.2198 10.9485 90.8481 10.763C91.4763 10.5774 92.1046 10.5155 92.7329 10.5155C93.9894 10.4537 95.1831 10.763 96.2512 11.4434Z" fill="#415BA6"/>
<path d="M97.1937 5.62886L103.414 3.09277L104.293 16.9484L109.382 14.2268L114.66 15.0309L107.749 20.2268L114.22 25.0515L114.534 29.8763L104.921 23.0721L105.236 28.9484L99.4555 29.0721L98.3874 8.22679L96.5654 8.59793L97.1937 5.62886Z" fill="#415BA6"/>
<path d="M55.1623 17.8145L58.1151 21.2784C57.8638 21.9589 57.2984 22.5774 56.4188 23.1341C55.5392 23.6908 54.4712 24.1238 53.2774 24.4331C52.0837 24.7424 50.8272 24.9279 49.6335 24.9279C48.5654 24.9279 47.623 24.8042 46.7434 24.4949C45.9267 24.1857 45.2356 23.8145 44.7958 23.196C43.979 22.2063 43.6021 20.9692 43.6021 19.4228C43.6021 18.2475 43.8534 17.0104 44.2931 15.897C44.7329 14.7217 45.2356 13.9176 45.6753 13.4228C46.2408 12.8661 46.9319 12.4331 47.623 12.062C48.3141 11.6908 49.068 11.4434 49.7591 11.2578C50.513 11.0723 51.267 11.0104 52.0837 11.0104C53.089 11.0104 54.0942 11.196 55.0366 11.5052C55.979 11.8145 56.7958 12.3094 57.4869 12.9279L50.7644 20.8455C51.3298 20.8455 51.8952 20.7217 52.4607 20.4743C53.0261 20.2269 53.4659 19.8558 53.9057 19.4228C54.4083 18.9898 54.7853 18.4331 55.1623 17.8145ZM45.4869 6.37123L51.9581 2.84546L54.7225 7.05164L46.8062 8.53618L45.4869 6.37123ZM51.7696 15.031C51.3926 14.8455 50.9528 14.7217 50.5759 14.7217C50.1361 14.7217 49.6963 14.7836 49.3193 14.9692C48.8795 15.1547 48.6282 15.3403 48.4397 15.5877C47.9371 16.2063 47.6858 16.9485 47.6858 17.6908C47.6858 18.0001 47.6858 18.2475 47.7486 18.4949C47.8115 18.7424 47.8743 19.1135 48.0628 19.5465L51.7696 15.031Z" fill="#415BA6"/>
<path d="M29.1519 5.62886L35.3718 3.09277L36.2513 16.9484L41.3404 14.2268L46.6178 15.0309L39.7068 20.2268L46.1781 25.0515L46.4922 29.8763L36.8796 23.0721L37.1938 28.9484L31.4765 29.0721L30.4084 8.22679L28.5864 8.59793L29.1519 5.62886Z" fill="#FFCB05"/>
<path d="M46.9319 30.495L37.3193 23.6908L37.6335 29.2578L31.2251 29.3816L30.157 8.59805L28.2722 9.03104L28.9005 5.44342L35.6858 2.65991L36.5654 16.4537L41.3403 13.9176L47.4973 14.8455L40.335 20.2269L46.6178 24.8661L46.9319 30.495ZM36.6282 22.4537L46.2408 29.2578L45.9895 25.2372L39.267 20.2269L45.8638 15.1548L41.4031 14.4743L35.9371 17.3816L35.0576 3.52589L29.4031 5.87641L28.9005 8.22692L30.5968 7.85579L31.7277 28.763L36.8795 28.6393L36.6282 22.4537Z" fill="#415BA6"/>
<path d="M62.5758 3.27831L62.89 11.6288H64.5863L64.0837 3.77316L70.5549 4.268L71.8743 31.0515L66.8481 30.9278L64.8376 16.8866L62.9528 16.3917L62.8271 29.0721L57.047 29.1958L56.3559 6.12367L54.2826 5.62883L54.157 2.5979L62.5758 3.27831Z" fill="#FFCB05"/>
<path d="M72.1884 31.3609L66.5968 31.2372L64.5864 17.1341L63.267 16.8248L63.1413 29.4434L56.733 29.5671L56.0418 6.49491L53.9686 6.00007L53.8429 2.35059L62.89 3.09285L63.2042 11.4434H64.2722L63.7696 3.52584L70.8691 4.08254V4.32997L72.1884 31.3609ZM67.1623 30.6186L71.5602 30.6805L70.3036 4.51553L64.4607 4.08254L64.9633 11.9382H62.6387L62.2617 3.5877L54.4712 2.96914L54.534 5.44337L56.6701 6.3712L57.3612 28.8867L62.5131 28.8248L62.6387 16.0207L65.1518 16.6392L67.1623 30.6186Z" fill="#415BA6"/>
<path d="M79.5392 11.8143L84.6282 9.52563L84.7539 16.2679C84.8167 16.7009 84.8795 17.1339 84.8795 17.6906C84.8795 18.1854 84.8795 18.4947 84.8167 18.7421L84.9424 26.1029L79.4764 26.4122V25.67C78.5968 26.0411 77.6544 26.2267 76.7748 26.2267C76.0837 26.2267 75.3926 26.103 74.8272 25.9174C74.2617 25.7318 73.6963 25.4225 73.2565 25.0514C72.5026 24.4328 71.9371 23.6906 71.5602 22.639C71.1832 21.6493 70.9319 20.5978 70.9319 19.4225C70.9319 17.505 71.4973 15.9586 72.6282 14.7215C73.6335 13.7318 74.6387 12.9277 75.6439 12.4329C76.6492 11.938 77.7172 11.6287 78.8481 11.6287C79.1623 11.6287 79.3507 11.6287 79.5392 11.6287V11.8143ZM79.4136 13.9792C78.9738 14.0411 78.534 14.1648 78.0942 14.4122C77.6544 14.6597 77.2774 14.9071 76.9633 15.2164C76.6492 15.5256 76.3979 15.8349 76.2094 16.206C76.0209 16.5772 75.9581 16.9483 75.9581 17.2576C75.9581 17.9999 76.335 18.5566 77.0261 19.0514C77.6544 19.4844 78.2827 19.67 78.9109 19.67C79.0366 19.67 79.2251 19.67 79.4136 19.6081V17.072C79.2251 17.072 78.9738 17.0102 78.8481 16.8865C78.5968 16.7009 78.4712 16.3298 78.4712 15.7731C78.4712 14.9689 78.7853 14.3504 79.4136 13.9792Z" fill="#FFCB05"/>
<path d="M79.0995 26.7215V26.103C77.5917 26.5978 75.9582 26.6597 74.6388 26.1648C74.0105 25.9174 73.4451 25.67 72.9425 25.2989C72.1885 24.6803 71.5603 23.8143 71.1205 22.7628C70.6807 21.7112 70.4922 20.5978 70.4922 19.4844C70.4922 17.5051 71.1205 15.835 72.2514 14.5978C73.2566 13.5463 74.3247 12.804 75.3299 12.2473C76.3979 11.6906 77.5288 11.4432 78.6597 11.4432C78.9739 11.4432 79.2252 11.4432 79.3508 11.4432L79.4765 11.5051L84.8168 9.15454L84.9424 16.3298C85.0053 16.7009 85.0681 17.1958 85.0681 17.7525C85.0681 18.2473 85.0681 18.6185 85.0053 18.804L85.1309 26.4123L79.0995 26.7215ZM79.7278 25.1752V26.0411L84.5655 25.7937L84.4398 18.7422C84.5027 18.4947 84.5027 18.1236 84.5027 17.6906C84.5027 17.1958 84.5027 16.7009 84.4398 16.3298L84.377 10.0205L79.5393 12.1855L79.3508 11.9999C79.2252 11.9999 79.0367 11.9999 78.7854 11.9999C77.7801 11.9999 76.7121 12.2473 75.7697 12.7422C74.7644 13.237 73.7592 13.9793 72.8168 14.969C71.7487 16.0824 71.1833 17.5669 71.1833 19.4226C71.1833 20.4741 71.3718 21.5257 71.7487 22.5154C72.1257 23.4432 72.6911 24.2473 73.3822 24.804C73.822 25.1133 74.3246 25.4226 74.8901 25.6081C76.2095 26.0411 77.843 25.9793 79.3508 25.3607L79.7278 25.1752ZM78.9739 19.9174C78.2828 19.9174 77.5917 19.67 76.9006 19.237C76.0838 18.7422 75.7068 18.0618 75.7068 17.1958C75.7068 16.8246 75.8325 16.3917 76.021 15.9587C76.2095 15.5875 76.4608 15.2164 76.8377 14.8453C77.1519 14.536 77.5917 14.2267 78.0315 13.9793C78.4712 13.7319 78.9739 13.6081 79.4765 13.5463L80.7959 13.3607L79.665 14.103C79.0995 14.4741 78.8482 14.969 78.8482 15.6494C78.8482 16.0824 78.911 16.3917 79.0995 16.5154C79.2252 16.5772 79.3508 16.6391 79.4765 16.6391H79.7906V19.7937L79.5393 19.8556C79.288 19.9174 79.0995 19.9174 78.9739 19.9174ZM78.4712 14.536C78.4084 14.536 78.3456 14.5978 78.2828 14.6597C77.9058 14.8453 77.5288 15.0927 77.2147 15.402C76.9634 15.6494 76.7121 15.9587 76.5236 16.3298C76.398 16.6391 76.2723 16.9484 76.2723 17.2576C76.2723 17.8762 76.5864 18.371 77.1519 18.804C77.7173 19.1752 78.2828 19.3607 78.8482 19.3607C78.911 19.3607 78.9739 19.3607 79.0367 19.3607V17.3195C78.8482 17.2576 78.7226 17.1958 78.5969 17.1339C78.2199 16.8865 78.0943 16.3917 78.0943 15.7731C78.1571 15.2783 78.2828 14.9071 78.4712 14.536Z" fill="#415BA6"/>
<path d="M97.1937 5.62886L103.414 3.09277L104.293 16.9484L109.382 14.2268L114.66 15.0309L107.749 20.2268L114.22 25.0515L114.534 29.8763L104.921 23.0721L105.236 28.9484L99.4555 29.0721L98.3874 8.22679L96.5654 8.59793L97.1937 5.62886Z" fill="#FFCB05"/>
<path d="M114.911 30.495L105.298 23.6908L105.612 29.2578L99.2041 29.3816L98.136 8.59805L96.2512 9.03104L97.0051 5.44342L103.665 2.65991L104.544 16.4537L109.319 13.9176L115.476 14.8455L108.314 20.2269L114.597 24.8661L114.911 30.495ZM104.607 22.4537L114.22 29.2578L113.968 25.2372L107.246 20.2269L113.906 15.2166L109.445 14.5362L103.979 17.4434L103.099 3.52589L97.4449 5.87641L96.9423 8.22692L98.6387 7.85579L99.7695 28.763L104.921 28.6393L104.607 22.4537Z" fill="#415BA6"/>
<path d="M28.775 12.6805C29.3404 12.9897 29.843 13.4227 30.1572 13.9176C30.5341 14.4124 30.7854 15.031 30.9739 15.6495C31.1624 16.2681 31.2252 16.9485 31.2252 17.6908C31.2252 18.2475 31.1624 18.8042 31.0996 19.3609C31.0367 19.9176 30.8483 20.4124 30.7226 20.8454C30.5341 21.2784 30.3457 21.6495 30.1572 21.9588C29.6546 22.7011 29.0891 23.3815 28.5237 23.8763C27.9582 24.433 27.3299 24.866 26.7017 25.1753C26.0734 25.4846 25.508 25.732 24.8797 25.9176C24.2514 26.1031 23.686 26.165 23.1205 26.165C22.4294 26.165 21.8011 26.0413 21.1729 25.8557C20.5446 25.6701 20.042 25.3609 19.6022 25.0516C18.8483 24.433 18.2828 23.6908 17.9059 22.6392C17.5289 21.6495 17.2776 20.598 17.2776 19.4227C17.2776 17.5052 17.843 15.9588 18.9739 14.7217C19.9163 13.732 20.9216 12.9279 21.9896 12.433C23.0577 11.9382 24.0629 11.6289 25.131 11.6289C25.7593 11.6289 26.3875 11.6908 26.953 11.8763C27.5184 12.1238 28.0839 12.3712 28.775 12.6805ZM28.021 14.7217C27.8954 15.3402 27.5813 15.8969 27.1415 16.3299C26.7017 16.8248 26.2619 17.0103 25.8221 17.0103C25.6336 17.0103 25.3823 16.9485 25.2566 16.8248C25.0053 16.6392 24.8797 16.2681 24.8797 15.8351C24.8797 15.464 25.0053 15.0928 25.2566 14.7217C25.508 14.3506 25.8849 14.1031 26.4504 13.8557C25.8849 13.8557 25.3823 13.9794 24.8797 14.165C24.3771 14.3506 23.9373 14.598 23.6231 14.9691C23.309 15.3402 22.9949 15.6495 22.7436 16.0207C22.5551 16.3918 22.4294 16.8248 22.4294 17.1959C22.4294 17.9382 22.8064 18.5567 23.4975 18.9897C24.1258 19.4227 24.754 19.6083 25.3823 19.6083C25.9477 19.6083 26.4504 19.4227 26.8902 19.0516C27.3299 18.6805 27.7069 18.1856 27.8954 17.567C28.1467 16.9485 28.2724 16.3918 28.2724 15.7732C28.2095 15.4021 28.1467 15.031 28.021 14.7217Z" fill="#FFCB05"/>
<path d="M23.0577 26.5359C22.3037 26.5359 21.6126 26.4122 20.9844 26.2266C20.3561 25.9792 19.7906 25.7317 19.288 25.3606C18.5341 24.7421 17.9058 23.8761 17.466 22.8245C17.0263 21.773 16.8378 20.6596 16.8378 19.5462C16.8378 17.5668 17.466 15.8967 18.5969 14.6596C19.6022 13.608 20.6074 12.8039 21.6755 12.3091C23.3718 11.4431 25.2566 11.3194 26.8901 11.7524C27.5184 11.9379 28.1467 12.1854 28.7749 12.5565C29.4032 12.8658 29.9058 13.2988 30.2828 13.8555C30.6598 14.4122 30.9739 15.0307 31.0995 15.7111C31.288 16.3915 31.3509 17.072 31.3509 17.8142C31.3509 18.4328 31.288 18.9895 31.2252 19.5462C31.0995 20.1029 30.9739 20.5977 30.8482 21.0926C30.6598 21.5874 30.4713 21.9586 30.22 22.3297C29.7173 23.072 29.1519 23.7524 28.5236 24.3091C27.8954 24.8658 27.2671 25.2988 26.6388 25.6699C26.0105 26.041 25.3823 26.2884 24.754 26.4122C24.1257 26.5359 23.6859 26.5359 23.0577 26.5359ZM25.0681 11.9998C24.0629 11.9998 22.9948 12.2472 22.0524 12.7421C21.0472 13.2369 20.1048 13.9792 19.1624 14.9689C18.0943 16.0823 17.5289 17.5668 17.5289 19.4225C17.5289 20.474 17.7173 21.5256 18.0943 22.5153C18.4713 23.4431 19.0367 24.2472 19.7278 24.8039C20.1048 25.1132 20.6074 25.3606 21.2357 25.608C22.3037 25.9792 23.5603 25.9792 24.8168 25.6699C25.3823 25.5462 25.9477 25.2988 26.576 24.9895C27.1414 24.6802 27.7697 24.2472 28.3351 23.6905C28.9006 23.1338 29.466 22.5153 29.9058 21.773C30.0943 21.4637 30.2828 21.0926 30.4713 20.7214C30.5969 20.2885 30.7226 19.7936 30.8482 19.2988C30.9111 18.8039 30.9739 18.2472 30.9739 17.6905C30.9739 17.0101 30.9111 16.3915 30.7226 15.773C30.5341 15.1544 30.2828 14.5977 29.9687 14.1029C29.6545 13.608 29.2147 13.2369 28.6493 12.9895C28.021 12.6802 27.4556 12.4328 26.8901 12.2472C26.2619 12.1235 25.6964 11.9998 25.0681 11.9998ZM25.2566 19.9173C24.6283 19.9173 23.9372 19.6699 23.2461 19.2369C22.4294 18.7421 22.0524 18.0616 22.0524 17.1957C22.0524 16.7627 22.1781 16.2678 22.4294 15.8348C22.6807 15.4019 22.9948 15.0307 23.3718 14.6596C23.7488 14.3503 24.1886 14.041 24.754 13.8555C25.3194 13.6699 25.8849 13.5462 26.4503 13.5462H28.021V13.4225L28.0838 13.5462L28.398 14.5977C28.5236 14.9689 28.5865 15.34 28.5865 15.773C28.5865 16.3915 28.4608 17.0101 28.2095 17.6287C27.9582 18.2472 27.5812 18.8039 27.0786 19.2369C26.5132 19.7317 25.9477 19.9173 25.2566 19.9173ZM25.0681 14.474C25.0053 14.474 25.0053 14.474 24.9425 14.5359C24.5027 14.7214 24.0629 14.9689 23.7488 15.2781C23.4346 15.5874 23.1833 15.8967 22.932 16.2678C22.7435 16.639 22.6179 16.9482 22.6179 17.3194C22.6179 17.9379 22.932 18.4328 23.4975 18.8658C24.6912 19.608 25.6964 19.608 26.5132 18.9276C26.8901 18.5565 27.2043 18.1235 27.4556 17.5668C27.6441 17.072 27.7697 16.5153 27.7697 16.0204C27.6441 16.2678 27.4556 16.4534 27.2671 16.639C26.7645 17.1338 26.199 17.4431 25.6964 17.4431C25.4451 17.4431 25.131 17.3812 24.9425 17.1957C24.6283 16.9482 24.4399 16.5153 24.4399 15.9586C24.4399 15.5256 24.5655 15.0926 24.8797 14.7214C25.0053 14.5359 25.0053 14.474 25.0681 14.474ZM27.9582 13.608L26.5132 14.1647C26.0105 14.3503 25.6964 14.5977 25.5079 14.907C25.3194 15.2163 25.1938 15.5256 25.1938 15.8348C25.1938 16.206 25.2566 16.4534 25.4451 16.5771C25.5708 16.639 25.6964 16.7008 25.8221 16.7008C26.199 16.7008 26.576 16.5153 26.953 16.0823C27.3927 15.6493 27.6441 15.1544 27.7697 14.5977L27.9582 13.608Z" fill="#415BA6"/>
<path d="M55.1623 17.8145L58.1151 21.2784C57.8638 21.9589 57.2984 22.5774 56.4188 23.1341C55.5392 23.6908 54.4712 24.1238 53.2774 24.4331C52.0837 24.7424 50.8272 24.9279 49.6335 24.9279C48.5654 24.9279 47.623 24.8042 46.7434 24.4949C45.9267 24.1857 45.2356 23.8145 44.7958 23.196C43.979 22.2063 43.6021 20.9692 43.6021 19.4228C43.6021 18.2475 43.8534 17.0104 44.2931 15.897C44.7329 14.7217 45.2356 13.9176 45.6753 13.4228C46.2408 12.8661 46.9319 12.4331 47.623 12.062C48.3141 11.6908 49.068 11.4434 49.7591 11.2578C50.513 11.0723 51.267 11.0104 52.0837 11.0104C53.089 11.0104 54.0942 11.196 55.0366 11.5052C55.979 11.8145 56.7958 12.3094 57.4869 12.9279L50.7644 20.8455C51.3298 20.8455 51.8952 20.7217 52.4607 20.4743C53.0261 20.2269 53.4659 19.8558 53.9057 19.4228C54.4083 18.9898 54.7853 18.4331 55.1623 17.8145ZM45.4869 6.37123L51.9581 2.84546L54.7225 7.05164L46.8062 8.53618L45.4869 6.37123ZM51.7696 15.031C51.3926 14.8455 50.9528 14.7217 50.5759 14.7217C50.1361 14.7217 49.6963 14.7836 49.3193 14.9692C48.8795 15.1547 48.6282 15.3403 48.4397 15.5877C47.9371 16.2063 47.6858 16.9485 47.6858 17.6908C47.6858 18.0001 47.6858 18.2475 47.7486 18.4949C47.8115 18.7424 47.8743 19.1135 48.0628 19.5465L51.7696 15.031Z" fill="#FFCB05"/>
<path d="M49.6336 25.2991C48.5027 25.2991 47.5603 25.1754 46.6807 24.8661C45.8011 24.5568 45.11 24.1238 44.6074 23.5053C43.7906 22.4537 43.3508 21.1548 43.3508 19.5465C43.3508 18.3094 43.6021 17.0723 44.0419 15.897C44.4817 14.6599 44.9843 13.8558 45.5498 13.361C46.1781 12.8043 46.8063 12.3094 47.5603 11.9383C48.2514 11.5671 49.0053 11.2579 49.822 11.0723C51.5812 10.6393 53.5917 10.7012 55.2252 11.3197C56.1676 11.629 57.0472 12.1238 57.8011 12.8043L58.0524 12.9898L51.5184 20.4744C51.8325 20.4125 52.0838 20.3506 52.3351 20.2269C52.8377 19.9795 53.2775 19.6702 53.7173 19.2372C54.1571 18.8043 54.5341 18.3094 54.8482 17.6909L55.0995 17.3197L58.4294 21.2785L58.3665 21.4641C58.1152 22.2063 57.487 22.8867 56.5445 23.4434C55.665 24.0001 54.5341 24.495 53.2775 24.8043C52.0838 25.1135 50.8273 25.2991 49.6336 25.2991ZM52.0838 11.3816C51.3299 11.3816 50.576 11.4434 49.8849 11.629C49.1938 11.8146 48.4398 12.062 47.8116 12.4331C47.1205 12.8043 46.4922 13.2372 45.9267 13.7939C45.487 14.2269 45.0472 15.0311 44.6074 16.1445C44.1676 17.2579 43.9791 18.4331 43.9791 19.6084C43.9791 21.0311 44.3561 22.2682 45.11 23.1342C45.5498 23.629 46.1152 24.062 46.932 24.3094C47.7487 24.5568 48.6911 24.7424 49.6964 24.7424C50.8901 24.7424 52.0838 24.5568 53.2775 24.2476C54.4713 23.9383 55.4765 23.5053 56.3561 22.9486C57.11 22.4537 57.6126 21.9589 57.8639 21.4022L55.3508 18.3713C55.0367 18.8661 54.7226 19.2991 54.3456 19.6702C53.843 20.1651 53.3404 20.5362 52.7749 20.7836C52.2095 21.0311 51.5812 21.1548 50.9529 21.1548H50.2618L57.1728 12.9898C56.5445 12.495 55.8534 12.1238 55.0367 11.8146C54.0315 11.5053 53.0891 11.3816 52.0838 11.3816ZM47.8744 20.2269L47.6859 19.6702C47.5603 19.2372 47.4346 18.8661 47.3718 18.6187C47.3089 18.3713 47.3089 18.062 47.3089 17.7527C47.3089 16.8867 47.5603 16.1445 48.1257 15.4641C48.3142 15.1548 48.6283 14.9692 49.1309 14.7218C50.0105 14.3506 51.0158 14.2888 51.8953 14.7836L52.2095 14.9692L47.8744 20.2269ZM50.5131 15.0311C50.1362 15.0311 49.7592 15.0929 49.3822 15.2785C49.0053 15.4022 48.754 15.5878 48.6283 15.7733C48.1257 16.3919 47.9372 17.0104 47.9372 17.6909C47.9372 17.9383 47.9372 18.1857 48 18.4331C48 18.5568 48.0629 18.7424 48.1257 18.928L51.2042 15.1548C51.0158 15.0929 50.7644 15.0311 50.5131 15.0311ZM46.7435 8.90735L45.0472 6.30942L52.0838 2.47437L55.288 7.29911L46.7435 8.90735ZM45.9267 6.49498L47.0576 8.22694L54.2828 6.86612L51.8953 3.27849L45.9267 6.49498Z" fill="#415BA6"/>
<path d="M96.2513 11.4434C96.754 11.7527 97.2566 12.2475 97.6335 12.8042C98.0105 13.3609 98.3875 13.9176 98.5759 14.4124C98.7644 14.9073 98.9529 15.2784 99.0157 15.464L94.4922 16.4537C94.4293 16.0826 94.178 15.7733 93.8639 15.6496C93.4869 15.5259 93.11 15.464 92.733 15.464C90.6597 15.6496 89.6545 16.8867 89.6545 19.1135C89.7173 20.9073 90.2827 21.897 91.3508 22.0826C91.8534 22.0826 92.3561 21.9588 92.733 21.7114C93.11 21.464 93.4869 21.1547 93.8011 20.7217C94.1152 20.2887 94.3665 19.8557 94.555 19.3609L99.0786 20.2887C99.0157 20.4743 98.8901 20.7836 98.7016 21.2784C98.5131 21.8351 98.0105 22.5155 97.1937 23.4434C96.377 24.3712 95.5602 24.9898 94.6178 25.299C93.4869 25.732 92.356 25.9795 91.2252 25.9795C89.4032 25.9795 87.8325 25.4228 86.4503 24.2475C85.822 23.6908 85.3822 23.0722 85.0681 22.33C84.7539 21.5877 84.6283 20.8454 84.6283 20.0413C84.6283 19.2372 84.754 18.3712 85.0053 17.5671C85.2566 16.763 85.5079 16.0207 85.8848 15.3403C86.3246 14.4743 86.8273 13.732 87.3299 13.1135C87.8325 12.4949 88.4608 12.0001 89.0262 11.6289C89.5916 11.2578 90.2199 10.9485 90.8482 10.763C91.4765 10.5774 92.1047 10.5155 92.733 10.5155C93.9896 10.4537 95.1833 10.763 96.2513 11.4434Z" fill="#FFCB05"/>
<path d="M91.2879 26.1648C89.4031 26.1648 87.7068 25.5463 86.2618 24.371C85.5707 23.8143 85.0681 23.1339 84.8167 22.3298C84.5026 21.5875 84.377 20.7834 84.377 19.9174C84.377 19.0514 84.5026 18.1855 84.7539 17.3813C85.0052 16.5772 85.3194 15.7731 85.6335 15.0927C86.0733 14.2267 86.5759 13.4226 87.1413 12.804C87.7068 12.1855 88.2722 11.6288 88.9005 11.2576C89.5288 10.8246 90.1571 10.5772 90.7853 10.3298C91.4136 10.1442 92.1047 10.0205 92.733 10.0205C94.0523 10.0205 95.3089 10.3916 96.4398 11.0721C97.0052 11.4432 97.5078 11.8762 97.9476 12.4947C98.3874 13.1133 98.7016 13.67 98.9529 14.1648C99.2042 14.6597 99.3298 15.0308 99.3927 15.2782L99.5183 15.5875L94.3037 16.7009L94.2408 16.3916C94.178 16.0824 94.0523 15.8968 93.801 15.8349C93.4869 15.7112 93.1099 15.6494 92.7958 15.6494C90.911 15.8349 90.0314 16.8865 90.0314 18.9896C90.0942 20.5978 90.534 21.4638 91.4764 21.6494C91.8534 21.6494 92.2932 21.5257 92.6701 21.3401C93.0471 21.0927 93.3612 20.7834 93.6754 20.4123C93.9267 20.0411 94.178 19.6081 94.3665 19.1133L94.4293 18.8659L99.5811 19.8556L99.4555 20.1648C99.3927 20.3504 99.267 20.6597 99.0785 21.1545C98.8272 21.7112 98.3246 22.4535 97.5707 23.3813C96.7539 24.3092 95.8743 24.9896 94.8691 25.3607C93.6126 25.9793 92.4188 26.1648 91.2879 26.1648ZM92.733 10.7628C92.1675 10.7628 91.5393 10.8246 90.9738 11.0102C90.4084 11.1958 89.7801 11.4432 89.2775 11.8143C88.712 12.1855 88.1466 12.6803 87.644 13.237C87.1413 13.8556 86.6387 14.536 86.1989 15.4019C85.8848 16.0205 85.5707 16.7628 85.3822 17.5669C85.1309 18.371 85.068 19.1133 85.068 19.9174C85.068 20.6597 85.1937 21.4019 85.5078 22.0824C85.7592 22.7628 86.1989 23.3813 86.8272 23.8762C88.1466 24.9896 89.7173 25.5463 91.4136 25.5463C92.4817 25.5463 93.6126 25.3607 94.7434 24.9277C95.623 24.5566 96.5026 23.9999 97.1937 23.1339C97.9476 22.2679 98.4502 21.5875 98.6387 21.0927C98.7644 20.8452 98.8272 20.6597 98.89 20.4741L94.9948 19.67C94.8063 20.103 94.555 20.536 94.3037 20.9071C93.9895 21.3401 93.6126 21.7112 93.1728 21.9586C92.733 22.2061 92.1675 22.3916 91.6021 22.3916C90.2827 22.1442 89.6544 21.0927 89.5916 19.1133C89.5916 16.7009 90.7853 15.3401 92.9843 15.1545C93.4241 15.1545 93.8639 15.2164 94.2408 15.3401C94.6178 15.4638 94.8691 15.7112 94.9948 16.0824L98.89 15.2164C98.8272 15.0308 98.7016 14.7834 98.5759 14.536C98.3874 14.0411 98.0105 13.5463 97.6335 12.9896C97.2565 12.4329 96.8167 11.9999 96.3141 11.6906C95.0576 11.0721 93.9267 10.7628 92.733 10.7628Z" fill="#415BA6"/>
<path d="M4.83765 6.61842C5.84288 6.30915 6.72246 5.99987 7.60204 5.75245C8.48163 5.44317 9.42403 5.19574 10.3664 4.94832C11.3089 4.7009 12.2513 4.51533 13.1308 4.39162C13.8219 4.26791 14.513 4.20605 15.2041 4.20605C16.3979 4.20605 17.1518 4.26791 17.5287 4.32977C18.0942 4.45348 18.5968 4.57719 19.0994 4.82461C19.602 5.07203 20.0418 5.38131 20.4188 5.75245C20.7958 6.12358 21.1099 6.61842 21.3612 7.11327C21.4869 7.29884 21.4869 7.54626 21.4869 7.79368C21.4869 8.65966 20.9842 9.77306 19.979 11.1339C18.9738 12.4329 17.9685 13.6081 16.9633 14.5978C15.9581 15.5875 15.2041 16.2679 14.7015 16.7009L16.9633 24.2473L13.7591 26.5359L8.48163 11.6287C8.48163 11.6287 7.0366 11.9999 6.97377 12.0617C6.97377 12.0617 6.84812 11.8762 6.72246 11.5669C6.59681 11.1957 6.40833 10.7628 6.15702 10.1442C5.90571 9.52564 5.6544 8.84523 5.40309 8.10296C5.15178 7.29884 4.9633 6.80399 4.83765 6.61842ZM12.7539 9.95863L13.7591 13.4844C14.2617 12.9896 14.89 12.3091 15.6439 11.4432C16.3979 10.5772 16.7748 9.95863 16.7748 9.52564C16.7748 9.40193 16.712 9.27822 16.5863 9.27822C16.2094 9.21636 15.8324 9.15451 15.5183 9.15451C14.3874 9.15451 13.5078 9.40193 12.7539 9.95863Z" fill="#FFCB05"/>
<path d="M13.5707 26.969C13.5707 26.969 7.22517 12.1855 7.16235 12.2473L7.09952 12.3092H6.97387C6.72256 12.3092 6.65973 12.1236 6.47125 11.5669C6.34559 11.1958 6.15711 10.7628 5.9058 10.1442C5.65449 9.52568 5.40318 8.84527 5.15188 8.103C4.90057 7.36073 4.71209 6.92774 4.58643 6.74218L4.39795 6.4329L4.71209 6.30919C5.71732 5.99991 6.5969 5.69063 7.47648 5.44321C8.35606 5.19579 9.29847 4.88651 10.2409 4.63908C11.1833 4.39166 12.1257 4.20609 13.0053 4.02053C13.6964 3.89682 14.3875 3.83496 15.1414 3.83496C16.3351 3.83496 17.1519 3.89682 17.5288 3.95867C18.0943 4.08238 18.6597 4.26795 19.1623 4.51537C19.665 4.7628 20.1676 5.07207 20.5445 5.50506C20.9215 5.93805 21.2985 6.4329 21.5498 6.9896C21.6754 7.23702 21.7383 7.5463 21.7383 7.79372C21.7383 8.78341 21.2356 9.89681 20.1676 11.3195C19.1623 12.6185 18.1571 13.7937 17.1519 14.7834C16.2723 15.6494 15.5184 16.3298 15.0157 16.7628L17.2147 24.371L13.5707 26.969ZM8.54455 11.0102L13.8849 25.9793L16.5864 24.0618L14.3875 16.5154L14.5131 16.3917C15.0157 15.9587 15.7697 15.2783 16.7749 14.2886C17.7801 13.2989 18.7854 12.1855 19.7278 10.8865C20.6702 9.64939 21.1728 8.59785 21.1728 7.73187C21.1728 7.5463 21.11 7.36073 21.0472 7.17517C20.7959 6.68032 20.5445 6.24733 20.1676 5.8762C19.7906 5.50506 19.4137 5.19579 18.911 5.01022C18.4712 4.7628 17.9686 4.63908 17.4032 4.51537C17.089 4.45352 16.2723 4.45352 15.1414 4.45352C14.4503 4.45352 13.7592 4.51537 13.1309 4.63908C12.2514 4.7628 11.3718 4.94836 10.4294 5.19579C9.48695 5.44321 8.54455 5.69063 7.72779 5.93805C6.97387 6.18548 6.15711 6.4329 5.27753 6.74218C5.40318 6.9896 7.03669 11.4432 7.03669 11.4432L8.54455 11.0102ZM13.5707 14.103L12.377 9.83496L12.5655 9.71125C13.3822 9.15455 14.3247 8.84527 15.4555 8.84527C15.8325 8.84527 16.2095 8.90712 16.5864 8.96898C16.8377 9.03084 17.0262 9.2164 17.0262 9.52568C17.0262 10.0205 16.6493 10.7009 15.8325 11.6288C15.0786 12.4948 14.4503 13.1752 13.9477 13.7319L13.5707 14.103ZM13.1309 10.0824L13.9477 12.8659C14.3875 12.4329 14.8901 11.8762 15.4555 11.1958C16.3351 10.2061 16.4608 9.71125 16.5236 9.52568C15.1414 9.27826 14.0105 9.52568 13.1309 10.0824Z" fill="#415BA6"/>
</svg>
